:SAMPLES-PER-SECOND 30
:FULLY-SPECIFIED
:DEGREES
311
root  -42.1228 36.6295 19.7851 167.832 32.8055 174.753
RightUpLeg  -13.2758 -14.9599 -14.2213
RightLeg  54.5564 -8.84646 -13.4834
RightFoot  -23.6923 0.455094 5.67338
RightToes  0.000482159 0.542163 -0.142577
Spine  29.4987 -2.92104 -5.12786
Spine1  -8.67835 -5.18616 11.5304
HEad  -25.9238 -2.65321 -2.46489
LeftShoulder1  8.35535 -12.5786 -45.2821
LeftArm  -8.33135 1.99545 -35.8842
LeftForeArm  60.6701 -62.0261 -15.3432
LeftHand  -0.25398 0.0180481 5.50724
RightShoulder  4.21037 7.49809 32.3268
RightArm  -3.18556 -34.7026 31.966
RightForeArm  2.68182 50.2529 13.3432
RightHand  -4.70061 12.6237 -30.0651
LeftUpLeg  5.66642 23.8288 30.7875
LeftLeg  32.1352 12.653 8.8108
LeftFoot  2.51891 1.84396 -15.4909
LeftToes  1.06246e-005 4.65855e-005 -8.18502e-006
312
root  -40.8543 36.7772 19.8597 168.497 37.2048 174.764
RightUpLeg  -13.0117 -12.8793 -11.5673
RightLeg  53.0653 -8.01007 -11.6439
RightFoot  -25.7724 0.694156 6.88347
RightToes  0.000482159 0.542163 -0.142577
Spine  28.6362 -3.14745 -2.64841
Spine1  -7.15098 -4.907 12.1417
HEad  -28.7363 2.66983 -4.34921
LeftShoulder1  8.50871 -12.7018 -45.7813
LeftArm  -11.3158 4.46963 -31.957
LeftForeArm  55.1226 -55.3605 -11.6972
LeftHand  -0.25398 0.0180481 5.50724
RightShoulder  4.30733 7.6496 32.6776
RightArm  -4.34917 -31.7831 31.2238
RightForeArm  1.35157 50.5236 13.5806
RightHand  -4.89106 12.8355 -30.8718
LeftUpLeg  4.72737 17.0314 28.5588
LeftLeg  34.2543 15.5872 11.4822
LeftFoot  6.76654 1.06254 -6.77508
LeftToes  1.06246e-005 4.65855e-005 -8.18502e-006
313
root  -39.7181 36.83 19.9428 169.403 40.7469 174.992
RightUpLeg  -13.2319 -10.9665 -8.83634
RightLeg  52.6489 -8.00752 -11.4786
RightFoot  -27.2781 0.654699 6.00312
RightToes  0.000482159 0.542163 -0.142577
Spine  28.9225 -3.38559 0.0997335
Spine1  -6.5732 -4.4774 12.9329
HEad  -31.9716 8.22864 -6.76207
LeftShoulder1  8.64804 -12.8963 -45.987
LeftArm  -11.3237 6.51846 -28.7001
LeftForeArm  50.1541 -46.2421 -8.22112
LeftHand  -0.25398 0.0180481 5.50724
RightShoulder  4.33579 7.68183 32.8197
RightArm  -5.58629 -28.3046 30.8069
RightForeArm  0.442636 50.8444 13.8144
RightHand  -4.88948 12.6472 -31.1623
LeftUpLeg  0.923074 11.6919 25.2326
LeftLeg  41.3326 12.6982 11.967
LeftFoot  6.83269 0.362352 -2.50074
LeftToes  1.06246e-005 4.65855e-005 -8.18502e-006
314
root  -38.5967 36.8677 19.996 170.201 44.2461 175.525
RightUpLeg  -12.9342 -8.57858 -5.98961
RightLeg  52.2262 -8.2981 -11.6947
RightFoot  -28.292 0.509073 4.69993
RightToes  0.000482159 0.542163 -0.142577
Spine  29.8952 -3.44511 3.60418
Spine1  -5.92281 -3.54182 12.2695
HEad  -35.7939 13.657 -9.80313
LeftShoulder1  8.7707 -13.1099 -46.0417
LeftArm  -8.82146 8.02129 -26.3262
LeftForeArm  45.633 -36.3113 -5.53598
LeftHand  -0.25398 0.0180481 5.50724
RightShoulder  4.51063 7.95727 33.4086
RightArm  -7.14205 -24.7656 30.2514
RightForeArm  0.919873 51.8975 14.3336
RightHand  -4.80949 12.4249 -31.0421
LeftUpLeg  -3.55777 11.2576 22.3929
LeftLeg  50.0082 7.77641 10.2661
LeftFoot  4.01409 0.414227 -3.29227
LeftToes  1.06246e-005 4.65855e-005 -8.18502e-006
315
root  -37.3537 36.9572 20.036 170.975 47.2265 175.59
RightUpLeg  -12.1013 -6.88192 -3.86941
RightLeg  51.0271 -8.1081 -10.9739
RightFoot  -29.3265 0.475067 4.25688
RightToes  0.000482159 0.542163 -0.142577
Spine  30.2812 -3.10531 6.23399
Spine1  -4.77693 -2.52234 11.0599
HEad  -40.1343 19.2997 -13.8093
LeftShoulder1  9.00233 -13.4041 -46.4463
LeftArm  -5.63201 10.021 -24.5163
LeftForeArm  42.4422 -28.0851 -3.77156
LeftHand  -0.25398 0.0180481 5.50724
RightShoulder  4.7531 8.35996 34.1169
RightArm  -8.21345 -20.915 29.89
RightForeArm  2.04672 53.2229 14.981
RightHand  -4.67302 12.1282 -30.6933
LeftUpLeg  -8.87294 13.2573 18.4058
LeftLeg  57.093 5.15984 9.09018
LeftFoot  0.776545 0.521379 -4.93514
LeftToes  1.06246e-005 4.65855e-005 -8.18502e-006
